<?xml version="1.0" encoding="UTF-8"?>
<svg width="18px" height="20px" viewBox="0 0 18 20" version="1.1" xmlns="http://www.w3.org/2000/svg" xmlns:xlink="http://www.w3.org/1999/xlink">
    <!-- Generator: Sketch 46.2 (44496) - http://www.bohemiancoding.com/sketch -->
    <title>Gear</title>
    <desc>Created with Sketch.</desc>
    <defs></defs>
    <g id="Symbols" stroke="none" stroke-width="1" fill="none" fill-rule="evenodd">
        <g id="Menu" transform="translate(-312.000000, -13.000000)" stroke="#FAFAFA">
            <g id="Gear" transform="translate(313.000000, 14.000000)">
                <path d="M10.8673615,9.11963077 C10.8673615,10.4897077 9.7569,11.6008615 8.38751538,11.6008615 C7.01743846,11.6008615 5.90628462,10.4897077 5.90628462,9.11963077 C5.90628462,7.74955385 7.01743846,6.63909231 8.38751538,6.63909231 C9.7569,6.63909231 10.8673615,7.74955385 10.8673615,9.11963077 Z" id="Stroke-1"></path>
                <path d="M15.1794,3.56393077 L12.2952462,3.87754615 C11.8369385,3.53693077 11.3322462,3.25446923 10.7943231,3.03846923 L9.6084,0.346084615 C9.21101538,0.290007692 8.80532308,0.259546154 8.39270769,0.259546154 C7.98078462,0.259546154 7.57509231,0.290007692 7.17701538,0.346084615 L6.04163077,2.92146923 C5.40055385,3.14439231 4.80309231,3.46008462 4.26586154,3.85331538 L1.60532308,3.56393077 C1.10616923,4.20016154 0.693553846,4.90700769 0.388246154,5.66923846 L1.73616923,7.51216154 C1.57832308,8.08746923 1.49178462,8.69323846 1.49178462,9.31908462 C1.49178462,9.70954615 1.52501538,10.0917 1.59009231,10.4641615 L0.388246154,12.1056231 C0.693553846,12.8671615 1.10616923,13.5747 1.60532308,14.2109308 L3.38870769,14.0170846 C4.22293846,14.8838538 5.28563077,15.5283923 6.48193846,15.8530846 L7.17701538,17.4280846 C7.57370769,17.4841615 7.98078462,17.5153154 8.39270769,17.5153154 C8.80532308,17.5153154 9.21101538,17.4841615 9.6084,17.4280846 L10.3415538,15.7658538 C11.4284769,15.4148538 12.3942462,14.7980077 13.1634,13.9914692 L15.1794,14.2109308 C15.6799385,13.5747 16.0904769,12.8671615 16.3978615,12.1056231 L14.9807077,10.1699308 C15.0160154,9.89162308 15.0360923,9.60708462 15.0360923,9.31908462 C15.0360923,8.78739231 14.9724,8.27023846 14.8560923,7.77385385 L16.3978615,5.66923846 C16.0904769,4.90700769 15.6799385,4.20016154 15.1794,3.56393077 Z" id="Stroke-3"></path>
            </g>
        </g>
    </g>
</svg>